<?xml version="1.0" encoding="UTF-8"?>
<svg version="1.1" xmlns="http://www.w3.org/2000/svg" width="512" height="512">
<path d="M0 0 C3.03201616 2.2770079 3.91831914 3.45957814 4.49219131 7.25646591 C4.48850414 8.55803761 4.48481697 9.8596093 4.48101807 11.20062256 C4.48443577 11.92682903 4.48785347 12.65303549 4.49137473 13.40124822 C4.49796482 15.83528287 4.47596023 18.26821535 4.45410156 20.70214844 C4.45297332 22.44655837 4.45360649 24.1909702 4.45587158 25.93537903 C4.45702058 30.6727604 4.43348127 35.40973774 4.40557575 40.14702511 C4.380593 45.09712114 4.37822257 50.04722614 4.37347412 54.99737549 C4.36103515 64.37193828 4.32820105 73.74631478 4.28807616 83.12079549 C4.24338714 93.79296845 4.22137863 104.46515025 4.20129442 115.13739347 C4.15946925 137.09169968 4.08909926 159.04583811 4 181 C4.61402176 181.1926796 5.22804352 181.38535919 5.860672 181.58387756 C6.66824448 181.84373947 7.47581696 182.10360138 8.30786133 182.37133789 C9.10750809 182.62589249 9.90715485 182.88044708 10.73103333 183.14271545 C19.59579358 186.49209121 25.17616454 195.01140822 28.9765625 203.23828125 C31.49615056 210.0373223 31.2545621 216.97286572 31.29516602 224.12744141 C31.30666436 225.53542142 31.32708261 226.94335857 31.35668945 228.35107422 C31.53070176 236.6433923 31.4144427 243.73287256 27 251 C26.46375 251.9075 25.9275 252.815 25.375 253.75 C16.74933904 261.9216788 6.85094077 261.71468006 -4.30786133 261.63491821 C-6.0665381 261.64068486 -7.82520885 261.64862963 -9.58386707 261.65855443 C-14.39920305 261.67937633 -19.21404189 261.66913377 -24.02937937 261.65362334 C-29.22920461 261.6422947 -34.4289453 261.65978007 -39.62875366 261.67352295 C-49.80830784 261.69574367 -59.98767758 261.69095931 -70.16723895 261.67645974 C-78.44114872 261.66516295 -86.71500685 261.66363852 -94.98892212 261.66907883 C-96.75601476 261.67022807 -96.75601476 261.67022807 -98.55880624 261.67140054 C-100.9520956 261.67299918 -103.34538495 261.67462025 -105.73867428 261.6762635 C-128.17496939 261.69051759 -150.6111623 261.67413356 -173.04744065 261.64726166 C-192.29437358 261.62492323 -211.54115573 261.62880345 -230.78808594 261.65185547 C-253.14467571 261.67861943 -275.50117595 261.68914432 -297.8577795 261.67379415 C-300.24221228 261.67220142 -302.62664507 261.67062957 -305.01107788 261.66907883 C-306.77080884 261.66792176 -306.77080884 261.66792176 -308.56608993 261.66674132 C-316.82904481 261.66242612 -325.09194284 261.66970702 -333.35488892 261.68147659 C-343.42614807 261.6955067 -353.4972124 261.69169074 -363.56844926 261.66507287 C-368.70594266 261.65194173 -373.84311135 261.64677054 -378.98060226 261.66331863 C-383.68596232 261.67824548 -388.39069746 261.66998477 -393.09600103 261.64343087 C-394.79572794 261.63785752 -396.49550793 261.6406606 -398.19520056 261.65280981 C-407.22391693 261.71238262 -415.4646163 261.71170539 -423 256 C-430.73530448 247.88517845 -431.34973397 239.64785381 -431.31567383 228.85205078 C-431.31252917 226.76931632 -431.33595511 224.68802655 -431.36132812 222.60546875 C-431.42518277 209.41376973 -429.01518597 199.55684816 -419.92578125 189.765625 C-416.21967022 186.22121166 -413.23757434 183.96630337 -408.33520508 182.39208984 C-407.52368484 182.12923187 -406.71216461 181.8663739 -405.87605286 181.59555054 C-405.25695541 181.39901886 -404.63785797 181.20248718 -404 181 C-404.00888245 180.13191711 -404.01776489 179.26383423 -404.0269165 178.3694458 C-404.10706476 170.18857027 -404.16796554 162.0078266 -404.20724869 153.82664871 C-404.22812361 149.62059023 -404.256439 145.41485615 -404.30175781 141.20898438 C-404.34521976 137.1500403 -404.36913782 133.09140826 -404.37950897 129.03224945 C-404.3868998 127.48366127 -404.40133252 125.93509017 -404.42292023 124.38663483 C-404.45196048 122.21734216 -404.45595599 120.04933859 -404.45410156 117.87988281 C-404.46298401 116.64522278 -404.47186646 115.41056274 -404.48101807 114.13848877 C-403.90749529 110.39643639 -402.98362491 109.25459668 -400 107 C-396.31548282 105.82409026 -394.71745725 105.66518662 -391.1875 107.3125 C-389 109 -389 109 -388 111 C-387.90817917 113.1547893 -387.88249538 115.31249718 -387.88647461 117.46923828 C-387.88635407 118.14350798 -387.88623354 118.81777767 -387.88610935 119.51247978 C-387.88685667 121.6984574 -387.89447665 123.88435011 -387.90234375 126.0703125 C-387.90381373 127.41853799 -387.9048341 128.76676406 -387.90539551 130.11499023 C-387.91064189 135.11833552 -387.92460305 140.12166859 -387.9375 145.125 C-387.958125 156.30375 -387.97875 167.4825 -388 179 C-345.1 179 -302.2 179 -258 179 C-258.11862339 148.46976859 -258.11862339 148.46976859 -258.27026367 117.93969727 C-258.28381348 112.0135498 -258.28381348 112.0135498 -258.28633118 109.23277283 C-258.29091566 107.30481383 -258.30142048 105.37686304 -258.31672668 103.44895935 C-258.33883315 100.5160342 -258.34171313 97.58363132 -258.34057617 94.65063477 C-258.3513705 93.80239167 -258.36216482 92.95414858 -258.37328625 92.08020115 C-258.3213939 82.01348493 -255.03272963 74.20888664 -248 67 C-241.35498582 61.59153629 -235.08358566 58.76798097 -226.41894531 58.70947266 C-225.13030579 58.69671295 -223.84166626 58.68395325 -222.51397705 58.67080688 C-221.11869458 58.66774831 -219.72341007 58.66552104 -218.328125 58.6640625 C-216.8809191 58.65762606 -215.43371448 58.65089708 -213.98651123 58.64389038 C-210.95712268 58.63194245 -207.92784793 58.62820685 -204.8984375 58.62939453 C-201.04079825 58.62959728 -197.18389936 58.60233095 -193.32643509 58.56785011 C-190.3373081 58.54546816 -187.3483559 58.54156046 -184.35915375 58.54261398 C-182.93835659 58.5402736 -181.51755345 58.5315394 -180.0968399 58.51594925 C-168.45035789 58.40013603 -159.39523202 59.90814427 -150.75390625 68.078125 C-143.56273773 75.95798004 -141.68545938 84.02336264 -141.77294922 94.42358398 C-141.77270815 95.35617318 -141.77246708 96.28876238 -141.7722187 97.24961185 C-141.77370358 100.24853846 -141.78889839 103.24721201 -141.8046875 106.24609375 C-141.80763049 108.10550822 -141.80966936 109.96492436 -141.81079102 111.82434082 C-141.82124863 118.69541926 -141.84917118 125.56646215 -141.875 132.4375 C-141.91625 147.803125 -141.9575 163.16875 -142 179 C-99.1 179 -56.2 179 -12 179 C-12.02320313 166.48578125 -12.04640625 153.9715625 -12.0703125 141.078125 C-12.08052733 133.16666585 -12.09023756 125.25521145 -12.09765625 117.34375 C-12.10953501 104.77667615 -12.12351828 92.20962908 -12.15087891 79.64257812 C-12.17079381 70.49108128 -12.18371193 61.33960609 -12.18817699 52.18808818 C-12.19078759 47.34103511 -12.1969365 42.49404403 -12.21146011 37.6470108 C-12.22501402 33.08674469 -12.22922708 28.52656623 -12.22621536 23.96628189 C-12.22676651 22.29089761 -12.23075699 20.61551047 -12.23841095 18.94014359 C-12.24833795 16.65556438 -12.24597718 14.3713176 -12.24050903 12.08673096 C-12.24327441 10.16755796 -12.24327441 10.16755796 -12.24609566 8.2096138 C-12.01361407 5.17755659 -11.70271236 3.48446554 -10 1 C-6.87057535 -0.56471233 -3.38917777 -0.69701958 0 0 Z M-239 81 C-242.24149575 86.12099679 -242.41594547 90.26581584 -242.34057617 96.12646484 C-242.34101425 97.02466949 -242.34145233 97.92287415 -242.34190369 98.84829712 C-242.33982181 101.80273545 -242.31651903 104.75659889 -242.29296875 107.7109375 C-242.28737066 109.76502167 -242.28310157 111.81910985 -242.28010559 113.87319946 C-242.26867361 119.2688104 -242.23922046 124.66417751 -242.20599365 130.05969238 C-242.16984944 136.53916892 -242.15612379 143.01872717 -242.13863373 149.49827576 C-242.10958229 159.33235321 -242.05208333 169.16589608 -242 179 C-214.28 179 -186.56 179 -158 179 C-157.85449515 162.84379351 -157.85449515 162.84379351 -157.75585938 146.6875 C-157.72600586 140.09484661 -157.69074401 133.50254148 -157.62280273 126.91015625 C-157.56835214 121.59331961 -157.53855172 116.27685659 -157.52561378 110.95976257 C-157.51639737 108.9344037 -157.49839966 106.90906456 -157.47134972 104.88386536 C-157.43488609 102.03997104 -157.43006189 99.19760725 -157.43237305 96.35351562 C-157.41439667 95.52200989 -157.39642029 94.69050415 -157.37789917 93.83380127 C-157.43055113 87.81967399 -159.07364557 83.60204697 -163 79 C-168.15448744 74.92217852 -173.60933963 73.88343022 -180.03051758 73.85473633 C-181.00535599 73.84835648 -181.9801944 73.84197662 -182.98457336 73.83540344 C-184.02735947 73.83429062 -185.07014557 73.8331778 -186.14453125 73.83203125 C-187.22828537 73.82870285 -188.31203949 73.82537445 -189.42863464 73.82194519 C-191.71910173 73.81688856 -194.00957616 73.81453647 -196.30004883 73.81469727 C-199.78935 73.81251448 -203.27833301 73.79435525 -206.76757812 73.77539062 C-208.99739476 73.77245564 -211.22721288 73.77047155 -213.45703125 73.76953125 C-214.49374466 73.76234573 -215.53045807 73.75516022 -216.59858704 73.74775696 C-225.48971111 73.77554812 -232.55640548 74.40655444 -239 81 Z M-411.84375 205.05859375 C-414.52262847 209.5565755 -415.25432906 213.96330571 -415.265625 219.1328125 C-415.26820313 220.26847656 -415.27078125 221.40414062 -415.2734375 222.57421875 C-415.26570313 223.74597656 -415.25796875 224.91773438 -415.25 226.125 C-415.25773437 227.30449219 -415.26546875 228.48398437 -415.2734375 229.69921875 C-415.27085937 230.83230469 -415.26828125 231.96539062 -415.265625 233.1328125 C-415.26336914 234.16293457 -415.26111328 235.19305664 -415.25878906 236.25439453 C-414.98131327 239.1982556 -414.81937626 240.66857249 -413 243 C-408.02815565 245.52269658 -404.37710672 246.375312 -398.72386169 246.37752342 C-398.022272 246.38188374 -397.32068231 246.38624407 -396.59783232 246.39073652 C-394.25309241 246.40166192 -391.90894435 246.39128382 -389.56420898 246.38095093 C-387.86373564 246.38440857 -386.16326454 246.38917385 -384.46279812 246.39513266 C-379.79461838 246.40765767 -375.12662261 246.40146542 -370.45844221 246.39217401 C-365.42224346 246.38539003 -360.38607648 246.39586152 -355.34988403 246.40411377 C-345.48579289 246.41746023 -335.6217702 246.41456928 -325.75767636 246.40587585 C-317.74159257 246.39910331 -309.72552797 246.39818072 -301.70944214 246.4014473 C-299.99872313 246.40213684 -299.99872313 246.40213684 -298.25344414 246.40284032 C-295.93665099 246.40379949 -293.61985784 246.40477213 -291.3030647 246.4057581 C-269.57365411 246.41431467 -247.84428147 246.40447366 -226.1148771 246.388357 C-207.46621416 246.37495358 -188.81760724 246.3772816 -170.16894531 246.39111328 C-148.51778904 246.40716437 -126.86666604 246.41349067 -105.21550465 246.40427649 C-102.90718906 246.40332083 -100.59887346 246.40237772 -98.29055786 246.4014473 C-97.15479433 246.40098447 -96.0190308 246.40052164 -94.84885019 246.40004479 C-86.8415166 246.39745349 -78.8342041 246.40182892 -70.82687378 246.40888596 C-61.06987671 246.4172959 -51.31295205 246.41503142 -41.55596328 246.39904372 C-36.57690174 246.39115424 -31.59796097 246.388081 -26.6189003 246.39799118 C-22.06175384 246.40692448 -17.50484023 246.4020277 -12.94771492 246.38605852 C-11.29841852 246.38270494 -9.64910248 246.38441774 -7.99981868 246.39168589 C-5.75831208 246.40080681 -3.51760331 246.39145394 -1.27613831 246.37752342 C-0.03103265 246.37703637 1.21407301 246.37654931 2.49690914 246.37604749 C6.6401479 245.93128182 9.29561859 244.88024202 13 243 C16.50833937 238.47398825 15.36898759 231.7507256 15.375 226.3125 C15.39949219 225.16587891 15.42398437 224.01925781 15.44921875 222.83789062 C15.47604752 215.0262483 14.77373586 208.11843641 9.30810547 202.15356445 C3.68402021 196.8488947 -2.31711053 194.62702656 -9.9866457 194.61688995 C-10.99209596 194.60945068 -10.99209596 194.60945068 -12.01785836 194.60186112 C-14.2561856 194.58894332 -16.49391254 194.59727715 -18.73225403 194.60559082 C-20.35634412 194.60070009 -21.98043073 194.59450944 -23.60451144 194.58713293 C-28.06166232 194.57073326 -32.51863633 194.5730514 -36.97580683 194.5785079 C-41.78507636 194.58117807 -46.59429874 194.56664651 -51.40354919 194.55441284 C-60.82346457 194.53335587 -70.24331841 194.52881815 -79.66325454 194.53060073 C-87.32033269 194.53190826 -94.97739163 194.52810465 -102.63446617 194.52067566 C-104.83994426 194.51857647 -107.04542235 194.51647886 -109.25090045 194.51438284 C-110.34862746 194.51333931 -111.44635447 194.51229578 -112.57734593 194.51122063 C-133.33970378 194.49231706 -154.10202631 194.49336878 -174.8643892 194.50018996 C-193.85589873 194.50576506 -212.84727335 194.48494156 -231.83875135 194.45182949 C-251.34078689 194.41809128 -270.8427578 194.40292436 -290.34482306 194.40754652 C-301.29308613 194.40979113 -312.24122452 194.40454925 -323.18946266 194.37965393 C-332.51052893 194.35863912 -341.83140215 194.35505064 -351.15247635 194.37395352 C-355.90719379 194.38311032 -360.66155131 194.38425604 -365.41624069 194.36359787 C-369.77198987 194.34488252 -374.12708449 194.34939749 -378.48280879 194.37214369 C-380.05544636 194.37632805 -381.62813417 194.37213487 -383.20071862 194.35854775 C-394.85620406 194.2647317 -404.08048746 195.69302993 -411.84375 205.05859375 Z " fill="#000000" transform="translate(456,251)"/>
<path d="M0 0 C1.6746113 -0.00679667 1.6746113 -0.00679667 3.38305312 -0.01373065 C7.11989765 -0.0263798 10.85659653 -0.02475391 14.59346008 -0.02310181 C17.27450094 -0.02908678 19.95553044 -0.03583583 22.63656616 -0.04345703 C29.16150738 -0.06004573 35.68641245 -0.06556564 42.21137299 -0.06668179 C47.51812607 -0.0676334 52.82486727 -0.07174936 58.13161659 -0.07808304 C73.19196041 -0.09569069 88.25227577 -0.10492281 103.31262996 -0.10342209 C104.12395624 -0.10334218 104.93528253 -0.10326227 105.77119446 -0.10317993 C106.98967778 -0.10305729 106.98967778 -0.10305729 108.23277692 -0.10293217 C121.39012222 -0.10211971 134.54735292 -0.12124858 147.70466509 -0.14945666 C161.22894121 -0.1782216 174.75316151 -0.19199493 188.27746898 -0.19026911 C195.86448909 -0.18960639 203.4513891 -0.19504668 211.03838158 -0.21662521 C217.49962997 -0.23488475 223.96070384 -0.2391455 230.42196693 -0.22560637 C233.71470077 -0.21910018 237.00703273 -0.22107022 240.29974747 -0.23631287 C243.87973328 -0.25180774 247.4588505 -0.24242789 251.03881836 -0.22705078 C252.06520926 -0.23733791 253.09160015 -0.24762503 254.14909381 -0.25822389 C267.92604223 -0.1281301 278.62078132 5.33349037 288.58686829 14.57992554 C300.21384434 26.86503231 301.24776286 40.02000248 301.0030365 56.08766365 C300.9611684 59.1029872 300.94522297 62.11741688 300.93721008 65.13301086 C300.91343211 73.69966365 300.87196475 82.26533614 300.74458313 90.83114624 C300.66826698 96.08867736 300.64580943 101.34413155 300.65785217 106.60217094 C300.65223758 108.59610106 300.62669442 110.59008367 300.58033752 112.58348274 C299.99575442 123.62550205 299.99575442 123.62550205 304.21406555 133.37701416 C306.98221005 135.63154216 309.79868733 137.40615693 312.83686829 139.26742554 C325.92880763 152.59652438 330.31517295 169.79811468 330.27046204 187.98617554 C330.27570389 189.24708008 330.28094574 190.50798462 330.28634644 191.80709839 C330.29434554 195.1198299 330.2873742 198.43213765 330.27601624 201.74484253 C330.27380831 204.45470749 330.29758336 207.16411636 330.32083035 209.87386322 C330.34356622 213.11963978 330.33673099 216.36533799 330.33296204 219.61117554 C330.34419601 220.82156494 330.35542999 222.03195435 330.36700439 223.27902222 C330.35762344 224.40119141 330.34824249 225.5233606 330.33857727 226.67953491 C330.33832802 228.15746521 330.33832802 228.15746521 330.33807373 229.66525269 C329.69825048 232.98710546 328.43634677 234.17388379 325.83686829 236.26742554 C323.83686829 236.83383179 323.83686829 236.83383179 321.83686829 236.82992554 C321.17686829 236.8518396 320.51686829 236.87375366 319.83686829 236.89633179 C316.47749018 235.83996484 315.63534161 234.30338685 313.83686829 231.26742554 C313.25417602 227.24888284 313.327738 223.25904895 313.36811829 219.20492554 C313.36106873 218.02204956 313.35401917 216.83917358 313.34675598 215.62045288 C313.31733603 210.57085885 313.33380251 205.52165183 313.34614563 200.47201538 C313.34854676 196.77859016 313.32748795 193.08577466 313.30561829 189.39242554 C313.31693787 188.27214966 313.32825745 187.15187378 313.33992004 185.99765015 C313.25569842 172.58697634 309.32444813 161.6086343 300.46186829 151.57992554 C291.37516495 143.5749726 282.02512754 138.15799073 269.60396576 138.13320446 C268.0439807 138.12651769 268.0439807 138.12651769 266.45248079 138.11969584 C265.31640996 138.1198802 264.18033914 138.12006457 263.00984192 138.12025452 C261.79784355 138.11657783 260.58584517 138.11290114 259.33711958 138.10911304 C255.97583165 138.10000312 252.61459247 138.09538022 249.25329685 138.09272373 C245.626646 138.0888133 242.00000918 138.07923543 238.37336731 138.07051086 C229.61595342 138.05076645 220.85853841 138.04068244 212.10110784 138.03178307 C207.97355274 138.02739653 203.84599892 138.02203064 199.71844482 138.0167942 C185.99118059 137.99978333 172.26391714 137.98529045 158.53664398 137.97804546 C154.97591145 137.97613568 151.41517892 137.97421533 147.85444641 137.97225952 C146.96948075 137.97177578 146.08451509 137.97129204 145.17273229 137.97079364 C130.84550333 137.96249811 116.51835798 137.93716863 102.19116551 137.90467884 C87.47027123 137.8715694 72.74941938 137.85359316 58.02848768 137.85040122 C49.7679116 137.84823963 41.50745743 137.83954264 33.24691772 137.81394005 C26.20997872 137.79217983 19.17319125 137.78420866 12.13622242 137.79390683 C8.54973674 137.79843631 4.96356335 137.79664504 1.37712097 137.77714539 C-2.52212568 137.75612938 -6.4209477 137.76654802 -10.32023621 137.77967834 C-11.43846126 137.7687091 -12.55668632 137.75773985 -13.70879698 137.74643821 C-26.98997477 137.8538654 -37.9282197 141.87378236 -47.85063171 150.64242554 C-56.40649774 160.35448968 -61.28045411 169.82557801 -61.29443359 182.98519897 C-61.29654931 183.64747875 -61.29866502 184.30975853 -61.30084485 184.99210739 C-61.30681997 187.20368857 -61.30584649 189.41521229 -61.30497742 191.62680054 C-61.30801048 193.21546526 -61.31153234 194.8041291 -61.31550598 196.39279175 C-61.32338262 199.81019181 -61.32853517 203.2275815 -61.33179665 206.64498901 C-61.33771428 212.04878931 -61.35426061 217.45252402 -61.37313843 222.85629272 C-61.37947534 224.7071838 -61.38580097 226.55807491 -61.39211559 228.40896606 C-61.3952814 229.33571892 -61.39844722 230.26247177 -61.40170896 231.21730804 C-61.44377625 243.79520033 -61.47677653 256.37306129 -61.48905945 268.95101929 C-61.49743415 277.43975981 -61.51989949 285.92833713 -61.55841511 294.416996 C-61.57818923 298.90801726 -61.59057572 303.39879447 -61.58558083 307.88986206 C-61.58094159 312.11220033 -61.59469965 316.33407534 -61.62259293 320.55632019 C-61.6295159 322.10548889 -61.62961935 323.65470537 -61.62239265 325.20387268 C-61.61351941 327.31968495 -61.62916973 329.43396435 -61.65087891 331.5496521 C-61.65326726 332.73319275 -61.65565561 333.9167334 -61.65811634 335.13613892 C-62.26564823 338.9030668 -63.50839845 340.57634148 -66.16313171 343.26742554 C-68.16313171 343.93148804 -68.16313171 343.93148804 -70.16313171 343.89242554 C-70.82313171 343.90531616 -71.48313171 343.91820679 -72.16313171 343.93148804 C-75.29991502 342.88997795 -76.36429811 340.98339106 -78.16313171 338.26742554 C-78.66649628 335.1328373 -78.66649628 335.1328373 -78.67106628 331.54101562 C-78.67730625 330.8776244 -78.68354621 330.21423318 -78.68997526 329.53073919 C-78.70589076 327.31451064 -78.69330733 325.0993843 -78.68070984 322.88314819 C-78.68613217 321.29099894 -78.69325545 319.69885471 -78.70195007 318.10671997 C-78.72018814 313.78370765 -78.71311008 309.4610772 -78.70043373 305.13805819 C-78.69029093 300.60201791 -78.6997046 296.06600986 -78.70597839 291.52996826 C-78.7132585 283.90186724 -78.70366535 276.27392101 -78.68461609 268.64584351 C-78.66292461 259.85894247 -78.66984074 251.07241384 -78.69192171 242.2855221 C-78.7101589 234.7225846 -78.71259131 227.15975836 -78.70216703 219.59680593 C-78.6959675 215.08870257 -78.69499633 210.58077323 -78.70831299 206.07268143 C-78.71998963 201.82241715 -78.7116337 197.57262465 -78.68873596 193.32241058 C-78.68350782 191.77420962 -78.6848596 190.22596802 -78.69378662 188.67778397 C-78.79398085 169.51263562 -73.88353043 153.00410345 -60.66703796 138.58383179 C-58.16313171 136.26742554 -58.16313171 136.26742554 -56.20097637 135.04175568 C-51.96993402 132.41094473 -51.96993402 132.41094473 -49.43328285 128.29321289 C-49.17492282 125.94914727 -49.16378288 123.72021546 -49.24247742 121.36312866 C-49.2395871 120.48741211 -49.23669678 119.61169556 -49.23371887 118.70944214 C-49.23250235 115.82113462 -49.28649135 112.9364626 -49.33891296 110.04867554 C-49.34409614 108.02813344 -49.3450202 106.00757635 -49.34188843 103.98703003 C-49.34177581 98.66538132 -49.38499297 93.34508914 -49.44169617 88.02377319 C-49.53014194 79.5367967 -49.57556107 71.05024179 -49.57819176 62.56282043 C-49.58867102 59.61669412 -49.63137423 56.67229548 -49.67687988 53.72653198 C-49.80525416 37.39160458 -46.79374684 25.13118405 -35.06547546 13.11898804 C-24.76616699 3.34645195 -13.89984805 -0.04149284 0 0 Z M-27.59281921 28.84945679 C-28.11102234 29.64738647 -28.62922546 30.44531616 -29.16313171 31.26742554 C-29.49795563 31.7741983 -29.83277954 32.28097107 -30.17774963 32.80310059 C-34.68820793 41.00432374 -33.66170892 50.23618426 -33.55375671 59.30258179 C-33.54628628 61.15059291 -33.54059714 62.998612 -33.53660583 64.84663391 C-33.52141263 69.6850005 -33.48218602 74.52287848 -33.43778992 79.36105347 C-33.39670023 84.30829257 -33.37856569 89.25561146 -33.35844421 94.20297241 C-33.31568502 103.89133684 -33.24751112 113.57934039 -33.16313171 123.26742554 C-32.09833084 123.10504457 -31.03352997 122.94266361 -29.9364624 122.77536201 C-24.22696357 122.06760865 -18.53535422 122.12926108 -12.7898407 122.14044189 C-11.55541701 122.1388819 -10.32099333 122.13732191 -9.04916286 122.13571465 C-5.63938771 122.13242563 -2.22966796 122.13359659 1.18010378 122.13670087 C4.86386076 122.13896864 8.54761299 122.1354685 12.23136902 122.13272095 C19.44130588 122.12827901 26.65123231 122.12923272 33.86116958 122.13213359 C39.72189529 122.13439381 45.58261809 122.13469746 51.44334412 122.13360977 C52.27810951 122.13345654 53.1128749 122.13330331 53.97293621 122.13314543 C55.66885209 122.1328257 57.36476797 122.13250148 59.06068385 122.13217284 C74.95580766 122.12932266 90.8509257 122.13259782 106.74604857 122.1379732 C120.37886376 122.14244082 134.01167044 122.14166476 147.64448547 122.13705444 C163.48351526 122.13170053 179.32253999 122.12959731 195.16157055 122.13266671 C196.85117785 122.13298525 198.54078515 122.13329962 200.23039246 122.13360977 C201.06166816 122.13376405 201.89294386 122.13391832 202.74940974 122.13407727 C208.6017348 122.13493997 214.45405666 122.13348486 220.30638123 122.13113022 C227.44033817 122.12832296 234.57428411 122.12909006 241.70823979 122.13441096 C245.34667138 122.13703545 248.98508464 122.13807426 252.62351608 122.13476181 C256.57021347 122.13122311 260.51688096 122.1354543 264.46357727 122.14044189 C266.18303731 122.13709581 266.18303731 122.13709581 267.93723392 122.13368213 C273.66714322 122.14773898 279.17036996 122.40329077 284.83686829 123.26742554 C284.92982625 112.74873685 285.00076375 102.23014699 285.04411697 91.71113014 C285.06493152 86.82593836 285.09313631 81.94102903 285.1386261 77.05599976 C285.18230363 72.33567937 285.20605145 67.61562951 285.21637726 62.89512253 C285.22372949 61.10030234 285.23808617 59.30549582 285.25978851 57.51079178 C285.41145039 44.44108988 284.68780919 34.25237082 275.24311829 24.31430054 C265.33389196 15.88502359 254.70624131 15.11365732 242.30603027 15.13371277 C241.2697338 15.13144721 240.23343732 15.12918166 239.16573793 15.12684745 C235.70608699 15.12053602 232.24647551 15.12133497 228.78681946 15.12216187 C226.3010554 15.11916861 223.8152918 15.11576569 221.32952881 15.11198425 C215.28566288 15.10407357 209.24181237 15.10093035 203.1979427 15.10037187 C198.28260851 15.09989576 193.36727752 15.09783627 188.45194435 15.09467125 C174.49919799 15.08587054 160.5464593 15.081251 146.59371015 15.08200172 C145.46678461 15.08206166 145.46678461 15.08206166 144.3170929 15.0821228 C143.56488617 15.08216368 142.81267945 15.08220456 142.03767858 15.08224668 C129.84973622 15.08265306 117.66182476 15.07308422 105.47389134 15.05898444 C92.94287525 15.04460275 80.41187421 15.03771523 67.88084966 15.03857821 C60.85226689 15.03890955 53.82371653 15.03619027 46.79514122 15.02540016 C40.18363524 15.0153149 33.57218587 15.01564879 26.96067238 15.02291679 C24.53838628 15.02396102 22.1160959 15.02160937 19.69381714 15.01555634 C16.37868402 15.00781066 13.06378549 15.01249835 9.74865723 15.02018738 C8.79785457 15.01504381 7.84705192 15.00990025 6.86743706 15.00460082 C-7.22444811 15.07646738 -18.0723571 18.01335293 -27.59281921 28.84945679 Z " fill="#000000" transform="translate(130.1631317138672,-0.267425537109375)"/>
<path d="M0 0 C0.72907562 -0.00807175 1.45815125 -0.01614349 2.20932007 -0.02445984 C3.75426876 -0.03828403 5.29924779 -0.04901364 6.84423828 -0.05688477 C8.41138773 -0.06836275 9.97849937 -0.088748 11.54541016 -0.1184082 C28.20025202 -0.43348078 28.20025202 -0.43348078 35.5859375 4.23828125 C36.9471875 5.07359375 36.9471875 5.07359375 38.3359375 5.92578125 C43.61866205 11.35524815 46.6774755 18.01218987 46.77880859 25.56079102 C46.79487152 26.64944962 46.81093445 27.73810822 46.82748413 28.85975647 C46.87209435 33.85351884 46.91302602 38.84714906 46.93603516 43.84106445 C46.95255847 46.46843343 46.97979991 49.09575813 47.01806641 51.72290039 C47.07308349 55.52123217 47.09475175 59.31850983 47.109375 63.1171875 C47.13204437 64.28109512 47.15471375 65.44500275 47.17807007 66.6441803 C47.15617335 75.17782821 45.49299942 81.96227005 39.62509155 88.3842926 C31.44287763 96.30064357 22.74746084 96.75027391 11.85986328 96.68432617 C9.72199794 96.67582523 7.58682074 96.70462536 5.44921875 96.73632812 C-4.36806014 96.78748729 -12.6689186 95.74284417 -20.2890625 89.05078125 C-26.42812349 82.95799459 -27.87365676 75.23796685 -27.96984863 66.91137695 C-27.96175171 65.76113037 -27.95365479 64.61088379 -27.9453125 63.42578125 C-27.9491394 62.21688232 -27.95296631 61.0079834 -27.95690918 59.76245117 C-27.95961979 57.21760216 -27.95231866 54.67272488 -27.93554688 52.12792969 C-27.91412731 48.25001446 -27.93538001 44.37395189 -27.9609375 40.49609375 C-27.95829408 38.01431886 -27.9531688 35.53254511 -27.9453125 33.05078125 C-27.95340942 31.90053467 -27.96150635 30.75028809 -27.96984863 29.56518555 C-27.87373492 21.24536151 -26.04386442 15.52388437 -21.7265625 8.48828125 C-15.53000014 2.45919355 -8.47966899 0.08948505 0 0 Z M-10.4140625 21.23828125 C-11.62481558 23.65978741 -11.56673093 25.25369546 -11.60693359 27.95996094 C-11.62299652 28.94148132 -11.63905945 29.92300171 -11.65560913 30.93426514 C-11.70005483 35.43012838 -11.74113231 39.92584338 -11.76416016 44.421875 C-11.78071241 46.79241763 -11.80799248 49.16291049 -11.84619141 51.53320312 C-11.90099088 54.9507843 -11.92284074 58.36719472 -11.9375 61.78515625 C-11.96016937 62.84160339 -11.98283875 63.89805054 -12.00619507 64.98651123 C-12.01265489 71.40849848 -12.01265489 71.40849848 -9.00634766 76.89160156 C-3.66743677 81.72467854 2.42307775 80.53739157 9.3359375 80.61328125 C10.61210937 80.65066406 11.88828125 80.68804687 13.203125 80.7265625 C20.80805698 81.03055857 20.80805698 81.03055857 27.4140625 77.83984375 C30.26859367 74.4205672 30.71418703 72.8666395 30.77880859 68.51660156 C30.79487152 67.53508118 30.81093445 66.55356079 30.82748413 65.54229736 C30.87192983 61.04643412 30.91300731 56.55071912 30.93603516 52.0546875 C30.95258741 49.68414487 30.97986748 47.31365201 31.01806641 44.94335938 C31.07286588 41.5257782 31.09471574 38.10936778 31.109375 34.69140625 C31.13204437 33.63495911 31.15471375 32.57851196 31.17807007 31.49005127 C31.18452989 25.06806402 31.18452989 25.06806402 28.17822266 19.58496094 C22.83931177 14.75188396 16.74879725 15.93917093 9.8359375 15.86328125 C8.55976563 15.82589844 7.28359375 15.78851563 5.96875 15.75 C-3.43848141 15.60992081 -3.43848141 15.60992081 -10.4140625 21.23828125 Z " fill="#000000" transform="translate(246.4140625,178.76171875)"/>
<path d="M0 0 C0.72907562 -0.00807175 1.45815125 -0.01614349 2.20932007 -0.02445984 C3.75426876 -0.03828403 5.29924779 -0.04901364 6.84423828 -0.05688477 C8.41138773 -0.06836275 9.97849937 -0.088748 11.54541016 -0.1184082 C21.8635114 -0.31360373 29.62587936 0.26490916 38.3984375 6.11328125 C44.29592223 11.84226642 46.63325673 17.81785376 46.87646484 25.91723633 C46.9031153 28.19732288 46.9175215 30.47757436 46.921875 32.7578125 C46.9318602 34.57752815 46.9318602 34.57752815 46.94204712 36.43400574 C46.95215677 38.99675992 46.95686466 41.55954035 46.95654297 44.12231445 C46.96091051 48.02664979 46.99723529 51.92984926 47.03515625 55.83398438 C47.04102596 58.32942324 47.04499432 60.82486744 47.046875 63.3203125 C47.06124603 64.47997025 47.07561707 65.63962799 47.09042358 66.83442688 C47.04383238 75.17184986 45.67875496 81.45817103 40.3359375 87.98828125 C31.01728749 95.61263126 24.00489724 96.46863595 12.16162109 96.53344727 C10.70514168 96.54491942 9.24870272 96.56529538 7.79248047 96.5949707 C-2.67760288 96.80799013 -12.08923378 96.43379187 -20.2890625 89.11328125 C-27.12247899 81.30963291 -28.0248677 72.60853027 -27.98046875 62.58203125 C-27.98666733 61.39911499 -27.99286591 60.21619873 -27.99925232 58.99743652 C-28.00631954 56.50985532 -28.00323109 54.02222652 -27.99047852 51.53466797 C-27.97660099 47.74878237 -28.01075025 43.96536551 -28.04882812 40.1796875 C-28.04977937 37.75130148 -28.0479202 35.3229124 -28.04296875 32.89453125 C-28.05622696 31.77445679 -28.06948517 30.65438232 -28.08314514 29.50036621 C-27.97931313 20.65149265 -25.69033903 14.20430021 -20.0390625 7.36328125 C-13.7403252 2.26430344 -8.09738512 0.08545085 0 0 Z M-10.4140625 21.23828125 C-11.62481558 23.65978741 -11.56673093 25.25369546 -11.60693359 27.95996094 C-11.62299652 28.94148132 -11.63905945 29.92300171 -11.65560913 30.93426514 C-11.70005483 35.43012838 -11.74113231 39.92584338 -11.76416016 44.421875 C-11.78071241 46.79241763 -11.80799248 49.16291049 -11.84619141 51.53320312 C-11.90099088 54.9507843 -11.92284074 58.36719472 -11.9375 61.78515625 C-11.96016937 62.84160339 -11.98283875 63.89805054 -12.00619507 64.98651123 C-12.01265489 71.40849848 -12.01265489 71.40849848 -9.00634766 76.89160156 C-3.66743677 81.72467854 2.42307775 80.53739157 9.3359375 80.61328125 C10.61210937 80.65066406 11.88828125 80.68804687 13.203125 80.7265625 C20.80805698 81.03055857 20.80805698 81.03055857 27.4140625 77.83984375 C30.26859367 74.4205672 30.71418703 72.8666395 30.77880859 68.51660156 C30.79487152 67.53508118 30.81093445 66.55356079 30.82748413 65.54229736 C30.87192983 61.04643412 30.91300731 56.55071912 30.93603516 52.0546875 C30.95258741 49.68414487 30.97986748 47.31365201 31.01806641 44.94335938 C31.07286588 41.5257782 31.09471574 38.10936778 31.109375 34.69140625 C31.13204437 33.63495911 31.15471375 32.57851196 31.17807007 31.49005127 C31.18452989 25.06806402 31.18452989 25.06806402 28.17822266 19.58496094 C22.83931177 14.75188396 16.74879725 15.93917093 9.8359375 15.86328125 C8.55976563 15.82589844 7.28359375 15.78851563 5.96875 15.75 C-3.43848141 15.60992081 -3.43848141 15.60992081 -10.4140625 21.23828125 Z " fill="#000000" transform="translate(369.4140625,178.76171875)"/>
<path d="M0 0 C1.08724617 -0.0099852 1.08724617 -0.0099852 2.19645691 -0.02017212 C3.72347496 -0.03025036 5.25053662 -0.03499064 6.77758789 -0.03466797 C9.08880896 -0.03903105 11.39810162 -0.07536968 13.70898438 -0.11328125 C23.11449289 -0.18493452 30.54194388 0.44873534 38.04296875 6.5859375 C43.28414759 12.99182275 46.38036681 18.21199595 46.4699707 26.58837891 C46.48922356 28.16119125 46.48922356 28.16119125 46.50886536 29.76577759 C46.51625229 30.89494598 46.52363922 32.02411438 46.53125 33.1875 C46.53932175 34.3567099 46.54739349 35.5259198 46.55570984 36.7305603 C46.56953944 39.20691449 46.58026661 41.68328766 46.58813477 44.15966797 C46.60530865 47.92582918 46.64920236 51.69110357 46.69335938 55.45703125 C46.70349027 57.86718107 46.71200513 60.27733833 46.71875 62.6875 C46.73625809 63.80452301 46.75376617 64.92154602 46.77180481 66.07241821 C46.74749856 74.94106245 45.12193464 82.40872554 39.16796875 89.2109375 C31.12205507 96.4028274 21.78637677 96.98213482 11.41601562 96.85742188 C9.29571214 96.83596526 7.17879498 96.85731517 5.05859375 96.8828125 C-4.21404421 96.90152661 -12.11164459 96.01224682 -19.51953125 90.0859375 C-24.31576741 84.05638347 -27.80342447 78.86686743 -27.8840332 70.99755859 C-27.89686844 69.9056723 -27.90970367 68.81378601 -27.92292786 67.68881226 C-27.93031479 66.50759796 -27.93770172 65.32638367 -27.9453125 64.109375 C-27.95338425 62.89198639 -27.96145599 61.67459778 -27.96977234 60.4203186 C-27.98361458 57.83963444 -27.9943361 55.25893197 -28.00219727 52.67822266 C-28.0193721 48.74736365 -28.06325466 44.8173539 -28.10742188 40.88671875 C-28.11755226 38.37761034 -28.12606728 35.86849479 -28.1328125 33.359375 C-28.15032059 32.19030609 -28.16782867 31.02123718 -28.18586731 29.81674194 C-28.16164199 20.61870892 -26.27229185 13.094294 -19.70703125 6.3359375 C-13.43774646 1.56582951 -7.7926143 0.02533736 0 0 Z M-9.70703125 19.3359375 C-11.59793031 22.3746044 -11.96957421 24.73483648 -12.01342773 28.28466797 C-12.02941513 29.26603729 -12.04540253 30.24740662 -12.06187439 31.2585144 C-12.06723709 32.3127359 -12.07259979 33.3669574 -12.078125 34.453125 C-12.08715347 35.54303741 -12.09618195 36.63294983 -12.10548401 37.75588989 C-12.1199861 40.06070204 -12.12887314 42.36555535 -12.13256836 44.67041016 C-12.14446435 48.19113722 -12.19365278 51.71011153 -12.24414062 55.23046875 C-12.25360506 57.47134562 -12.26083999 59.71223325 -12.265625 61.953125 C-12.28515732 63.00329803 -12.30468964 64.05347107 -12.32481384 65.13546753 C-12.30350006 71.52903608 -12.30350006 71.52903608 -9.29711914 76.98486328 C-4.0334561 81.76279477 1.78311086 80.55776049 8.60546875 80.5859375 C9.84232422 80.6065625 11.07917969 80.6271875 12.35351562 80.6484375 C13.54654297 80.65359375 14.73957031 80.65875 15.96875 80.6640625 C17.06098877 80.6734082 18.15322754 80.68275391 19.27856445 80.69238281 C23.52593529 80.19014248 26.06313883 78.70401927 28.9099884 75.53713989 C30.54712825 72.93140788 30.68300676 71.44426234 30.71289062 68.38720703 C30.72880249 67.40583771 30.74471436 66.42446838 30.7611084 65.4133606 C30.76130981 64.3591391 30.76151123 63.3049176 30.76171875 62.21875 C30.76933228 61.12883759 30.7769458 60.03892517 30.78479004 58.91598511 C30.7955919 56.61116831 30.79844381 54.30630256 30.79394531 52.00146484 C30.79297418 48.48061107 30.83457318 44.96194472 30.87890625 41.44140625 C30.8841142 39.20052537 30.88680143 36.95963693 30.88671875 34.71875 C30.90311401 33.66857697 30.91950928 32.61840393 30.93640137 31.53640747 C30.89254598 25.14251768 30.89254598 25.14251768 27.88085938 19.68701172 C22.52994866 14.82575982 16.41185989 16.11351141 9.48046875 16.0859375 C8.19591797 16.0653125 6.91136719 16.0446875 5.58789062 16.0234375 C3.73067383 16.01570312 3.73067383 16.01570312 1.8359375 16.0078125 C0.7018042 15.9984668 -0.4323291 15.98912109 -1.60083008 15.97949219 C-5.11343596 16.38257358 -6.93037284 17.16893869 -9.70703125 19.3359375 Z " fill="#000000" transform="translate(123.70703125,178.6640625)"/>
<path d="M0 0 C2.41912474 0.01387085 4.83437394 -0.02028341 7.25317383 -0.05834961 C16.89232506 -0.106666 24.90985396 0.48627398 32.38183594 7.30273438 C39.55816475 14.66955509 39.94837818 23.31022189 39.9230957 33.07250977 C39.92833755 34.26062759 39.93357941 35.44874542 39.9389801 36.67286682 C39.94538167 39.1765973 39.94408761 41.68035793 39.93554688 44.18408203 C39.92703668 47.99835146 39.955828 51.81112234 39.98754883 55.62524414 C39.98916112 58.0659989 39.98858278 60.5067563 39.9855957 62.94750977 C39.99682968 64.07901962 40.00806366 65.21052948 40.01963806 66.37632751 C39.93745474 75.79088331 37.630504 83.06562843 31.19262695 90.07250977 C23.04223017 97.26953444 12.94946076 96.75815468 2.67700195 96.76391602 C0.97060547 96.78228516 0.97060547 96.78228516 -0.77026367 96.80102539 C-11.56571491 96.81971342 -19.37077966 96.01315873 -27.51049805 88.57641602 C-34.62254061 81.07993872 -34.96051289 73.80780582 -34.90893555 63.92407227 C-34.91180573 62.70997177 -34.9146759 61.49587128 -34.91763306 60.24497986 C-34.91966952 57.68398572 -34.91416902 55.12297588 -34.90161133 52.56201172 C-34.88556678 48.6556495 -34.90146824 44.75032413 -34.9206543 40.84399414 C-34.91867152 38.34985124 -34.91482714 35.85570899 -34.90893555 33.36157227 C-34.91500824 32.19989029 -34.92108093 31.03820831 -34.92733765 29.84132385 C-34.85684457 21.65658257 -33.96326248 14.73949783 -28.38549805 8.32641602 C-27.86729492 7.70250977 -27.3490918 7.07860352 -26.81518555 6.43579102 C-18.71975485 -0.09543782 -9.98136007 -0.07985088 0 0 Z M-17.17250061 20.36854553 C-18.77014216 23.0048627 -18.89576687 24.56630842 -18.91455078 27.6328125 C-18.92723495 28.63743027 -18.93991913 29.64204803 -18.95298767 30.67710876 C-18.95005203 31.75634109 -18.94711639 32.83557343 -18.9440918 33.94750977 C-18.94933365 35.0619899 -18.9545755 36.17647003 -18.9599762 37.32472229 C-18.96639751 39.68082852 -18.96505802 42.03696681 -18.95654297 44.39306641 C-18.94803777 47.99708195 -18.97678744 51.59951038 -19.00854492 55.20336914 C-19.01015713 57.49308221 -19.00957902 59.78279808 -19.0065918 62.07250977 C-19.01782578 63.14971786 -19.02905975 64.22692596 -19.04063416 65.33677673 C-18.98701356 71.26010457 -18.98701356 71.26010457 -16.79199219 76.67041016 C-10.96555252 81.53793444 -4.81028897 80.91059753 2.42700195 80.88891602 C3.49885742 80.9050293 4.57071289 80.92114258 5.67504883 80.93774414 C13.54152778 80.97883377 13.54152778 80.97883377 20.48950195 77.57641602 C24.51584345 72.80723387 23.94002017 67.50223007 23.9230957 61.58032227 C23.92833755 60.51402084 23.93357941 59.44771942 23.9389801 58.34910583 C23.94539454 56.0973294 23.94407082 53.84551944 23.93554688 51.59375 C23.9270403 48.15442027 23.95580268 44.7167535 23.98754883 41.27758789 C23.98916108 39.08683318 23.98858284 36.89607553 23.9855957 34.70532227 C23.99682968 33.68016006 24.00806366 32.65499786 24.01963806 31.59877014 C23.96157516 25.62951124 23.51813627 22.09650492 19.48950195 17.57641602 C14.25017532 14.80922219 8.34292241 15.24462581 2.55200195 15.26391602 C1.58842773 15.24780273 0.62485352 15.23168945 -0.36791992 15.21508789 C-6.74915933 15.21072614 -12.56057407 15.39552693 -17.17250061 20.36854553 Z " fill="#000000" transform="translate(130.510498046875,309.423583984375)"/>
<path d="M0 0 C2.41045258 0.02681531 4.8162512 0.00015712 7.2265625 -0.03173828 C16.83329255 -0.05361895 24.86432303 0.59036707 32.30664062 7.37792969 C39.47229547 14.7360879 39.8729788 23.36209087 39.84765625 33.11279297 C39.8528981 34.29853912 39.85813995 35.48428528 39.86354065 36.70596313 C39.86994265 39.20549743 39.86864758 41.70506194 39.86010742 44.20458984 C39.85160493 48.00787593 39.88037556 51.80965522 39.91210938 55.61279297 C39.91372189 58.05029252 39.9131429 60.48779471 39.91015625 62.92529297 C39.92139023 64.05164154 39.93262421 65.17799011 39.94419861 66.33847046 C39.87221808 74.58365987 38.578911 81.80195032 33.23046875 88.30810547 C32.48667969 88.91654297 31.74289062 89.52498047 30.9765625 90.15185547 C30.23535156 90.78091797 29.49414062 91.40998047 28.73046875 92.05810547 C20.87220322 97.46480418 11.69118255 96.83424255 2.5390625 96.83935547 C1.39308594 96.85160156 0.24710937 96.86384766 -0.93359375 96.87646484 C-10.64553104 96.89322883 -18.85284366 95.99490971 -26.5859375 89.65185547 C-34.09178576 81.59801387 -34.90108542 74.03574297 -34.921875 63.35107422 C-34.9285318 62.1601265 -34.9351886 60.96917877 -34.94204712 59.74214172 C-34.9521559 57.22646627 -34.95686469 54.7107641 -34.95654297 52.19506836 C-34.96091038 48.36315294 -34.99723558 44.532395 -35.03515625 40.70068359 C-35.04102602 38.25081772 -35.04499434 35.8009464 -35.046875 33.35107422 C-35.06124603 32.21329025 -35.07561707 31.07550629 -35.09042358 29.90324402 C-35.04157479 21.32076695 -33.12644879 15.53734332 -28.4609375 8.40185547 C-19.99695051 0.30586791 -11.13182505 -0.14730632 0 0 Z M-17.24609375 20.57666016 C-19.26646568 25.2137966 -19.03383959 29.64142764 -19.01953125 34.64794922 C-19.0247731 35.71425064 -19.03001495 36.78055206 -19.03541565 37.87916565 C-19.04183009 40.13094208 -19.04050637 42.38275205 -19.03198242 44.63452148 C-19.02347585 48.07385122 -19.05223823 51.51151798 -19.08398438 54.95068359 C-19.08559663 57.14143831 -19.08501839 59.33219595 -19.08203125 61.52294922 C-19.09326523 62.54811142 -19.10449921 63.57327362 -19.11607361 64.62950134 C-19.05983385 70.4113292 -18.73212508 74.23679794 -14.5859375 78.65185547 C-9.32851475 81.61712944 -3.51828148 80.98194038 2.3515625 80.96435547 C3.42341797 80.98046875 4.49527344 80.99658203 5.59960938 81.01318359 C13.44479155 81.02195337 13.44479155 81.02195337 20.4140625 77.65185547 C23.16589356 74.62044578 23.79320521 72.66206166 23.81811523 68.59545898 C23.83079941 67.59084122 23.84348358 66.58622345 23.85655212 65.55116272 C23.85361649 64.47193039 23.85068085 63.39269806 23.84765625 62.28076172 C23.8528981 61.16628159 23.85813995 60.05180145 23.86354065 58.90354919 C23.86996196 56.54744296 23.86862248 54.19130467 23.86010742 51.83520508 C23.85160223 48.23118953 23.88035189 44.62876111 23.91210938 41.02490234 C23.91372159 38.73518928 23.91314347 36.4454734 23.91015625 34.15576172 C23.92139023 33.07855362 23.93262421 32.00134552 23.94419861 30.89149475 C23.90611822 24.90953659 23.90611822 24.90953659 21.54345703 19.51367188 C16.06918779 14.72729521 9.35933866 15.31642817 2.4765625 15.33935547 C1.51298828 15.32324219 0.54941406 15.30712891 -0.44335938 15.29052734 C-6.8580303 15.28614274 -12.76501158 15.38124077 -17.24609375 20.57666016 Z " fill="#000000" transform="translate(376.5859375,309.34814453125)"/>
<path d="M0 0 C9.32155152 6.70295313 14.38146718 14.99700859 16.3125 26.3125 C17.43522403 35.7360197 14.72465041 45.51664861 9.1875 53.1875 C1.7557153 61.78939549 -6.99050617 66.37264222 -18.25390625 67.58984375 C-29.57691492 68.03284096 -39.13545696 63.67199524 -47.375 56.125 C-55.33039779 47.82371535 -57.18148191 38.3143116 -56.96484375 27.2109375 C-56.33907892 18.41497547 -52.88994752 10.60811733 -46.6875 4.3125 C-33.16869556 -7.31180071 -15.41439765 -9.55588503 0 0 Z M-37.5 19.59765625 C-40.9382011 24.56269007 -41.46833004 29.40191313 -40.6875 35.3125 C-38.80227913 41.52131125 -35.04075668 45.75924666 -29.6875 49.3125 C-25.26299441 51.34039839 -21.52333384 51.87668061 -16.6875 51.3125 C-9.97320811 48.80112653 -5.14395332 46.00866076 -1.7578125 39.53515625 C0.5716596 34.32991992 0.86805997 29.80497101 -0.6875 24.3125 C-3.22758723 18.4765971 -7.02806545 14.26249608 -12.6875 11.3125 C-22.91544517 8.16543995 -31.07507527 11.33953289 -37.5 19.59765625 Z " fill="#000000" transform="translate(235.6875,37.6875)"/>
<path d="M0 0 C2.66796875 1.83203125 2.66796875 1.83203125 5 5 C5.61505664 8.79372327 5.47056851 12.48220614 5.3125 16.3125 C5.209375 19.839375 5.10625 23.36625 5 27 C12.59 27 20.18 27 28 27 C27.88176555 20.31371183 27.88176555 20.31371183 27.72973633 13.62817383 C27.65204076 4.91540995 27.65204076 4.91540995 31 1 C33.85324437 -0.42662219 35.83454549 -0.31033868 39 0 C41.65878296 1.62892151 41.65878296 1.62892151 44 4 C44.63491821 6.87705994 44.63491821 6.87705994 44.64697266 10.24975586 C44.66273346 11.5146434 44.67849426 12.77953094 44.69473267 14.08274841 C44.68578188 15.46012238 44.67552664 16.83748841 44.6640625 18.21484375 C44.66743238 19.63204871 44.67228643 21.04925084 44.67855835 22.46644592 C44.68592425 25.43486074 44.67523659 28.40252247 44.65185547 31.37084961 C44.62339185 35.16881107 44.63975506 38.96500403 44.66971779 42.76290035 C44.68782187 45.6893079 44.6820185 48.61529906 44.66907883 51.54171944 C44.66575195 52.94150567 44.6698067 54.34133016 44.68147659 55.7410717 C44.69422958 57.70098993 44.67133164 59.66104127 44.64697266 61.62084961 C44.64299469 62.73463486 44.63901672 63.8484201 44.63491821 64.99595642 C43.79947678 68.9487529 42.0773561 70.47302424 39 73 C36.8671875 73.4453125 36.8671875 73.4453125 34.875 73.125 C34.21242187 73.04507813 33.54984375 72.96515625 32.8671875 72.8828125 C30.0729044 71.56166609 29.36494539 69.73012853 28 67 C27.65942383 64.22924805 27.65942383 64.22924805 27.70703125 61.26171875 C27.7215332 59.66166992 27.7215332 59.66166992 27.73632812 58.02929688 C27.76146484 56.92650391 27.78660156 55.82371094 27.8125 54.6875 C27.83280273 53.00430664 27.83280273 53.00430664 27.85351562 51.28710938 C27.88878256 48.52453317 27.94258697 45.7622047 28 43 C20.41 43 12.82 43 5 43 C5.05220703 45.51173828 5.05220703 45.51173828 5.10546875 48.07421875 C5.13361024 50.27863579 5.16091002 52.4830637 5.1875 54.6875 C5.21263672 55.79029297 5.23777344 56.89308594 5.26367188 58.02929688 C5.27333984 59.09599609 5.28300781 60.16269531 5.29296875 61.26171875 C5.3086792 62.24100342 5.32438965 63.22028809 5.34057617 64.22924805 C4.9393355 67.49353505 3.92355191 69.35662189 2 72 C0.1328125 72.8828125 0.1328125 72.8828125 -1.875 73.125 C-2.53242187 73.23070313 -3.18984375 73.33640625 -3.8671875 73.4453125 C-6.47354373 72.90112823 -8.08103728 71.88760883 -9.91744995 69.96554565 C-12.53082412 65.22053987 -11.70893022 59.18961295 -11.6640625 53.90625 C-11.66743353 52.51289446 -11.67228854 51.1195418 -11.67855835 49.72619629 C-11.68591645 46.81083078 -11.67526031 43.89623303 -11.65185547 40.98095703 C-11.62336611 37.25139507 -11.63977611 33.52363206 -11.66971779 29.79413605 C-11.68782085 26.91834048 -11.68201946 24.04296865 -11.66907883 21.16716003 C-11.66575301 19.79249354 -11.66980295 18.41778807 -11.68147659 17.04316711 C-11.76153645 4.96668469 -11.76153645 4.96668469 -8.64599609 1.65820312 C-5.35103283 -0.40669727 -3.81566802 -0.79493084 0 0 Z " fill="#000000" transform="translate(127,32)"/>
<path d="M0 0 C0.69749863 -0.0038269 1.39499725 -0.00765381 2.1136322 -0.01159668 C3.58366342 -0.01431148 5.0537433 -0.0069803 6.52368164 0.00976562 C8.77404186 0.03121852 11.021222 0.00993778 13.27148438 -0.015625 C14.70182996 -0.01298227 16.13217356 -0.00785843 17.5625 0 C18.86195557 0.00451172 20.16141113 0.00902344 21.50024414 0.01367188 C24.71484375 0.53125 24.71484375 0.53125 26.63696289 2.43725586 C28.47695343 6.01179693 28.09505303 8.53905251 27.71484375 12.53125 C26.4831543 14.2590332 26.4831543 14.2590332 24.71484375 15.53125 C22.53833008 15.87182617 22.53833008 15.87182617 20.046875 15.82421875 C19.15419922 15.81455078 18.26152344 15.80488281 17.34179688 15.79492188 C15.94864258 15.7572168 15.94864258 15.7572168 14.52734375 15.71875 C13.58697266 15.70521484 12.64660156 15.69167969 11.67773438 15.67773438 C9.3565264 15.64238603 7.03561287 15.58857915 4.71484375 15.53125 C4.71484375 19.82125 4.71484375 24.11125 4.71484375 28.53125 C5.895625 28.49644531 7.07640625 28.46164063 8.29296875 28.42578125 C9.85024617 28.39763768 11.407539 28.37033813 12.96484375 28.34375 C13.74214844 28.31861328 14.51945312 28.29347656 15.3203125 28.26757812 C18.78415136 28.22316993 21.09049924 28.20435264 24.19921875 29.83203125 C26.66061884 32.59159063 26.71484375 34.90964588 26.71484375 38.53125 C24.94843203 41.33314446 23.68434553 43.04649911 20.71484375 44.53125 C17.99724267 44.60306821 15.30624987 44.62424506 12.58984375 44.59375 C11.83574219 44.58923828 11.08164062 44.58472656 10.3046875 44.58007812 C8.44137248 44.56828499 6.5780982 44.55034942 4.71484375 44.53125 C4.71484375 48.49125 4.71484375 52.45125 4.71484375 56.53125 C6.04 56.48484375 7.36515625 56.4384375 8.73046875 56.390625 C10.47523787 56.35310308 12.22003137 56.31670337 13.96484375 56.28125 C14.83753906 56.24773437 15.71023438 56.21421875 16.609375 56.1796875 C23.05872204 56.08122419 23.05872204 56.08122419 26.2890625 58.296875 C27.76905762 60.61620981 28.28266422 61.80716738 28.27734375 64.53125 C28.29925781 65.19125 28.32117188 65.85125 28.34375 66.53125 C27.35214657 69.68467209 25.42531283 70.73331855 22.71484375 72.53125 C19.56445312 73.04882812 19.56445312 73.04882812 16.05859375 73.0625 C14.15400391 73.07023437 14.15400391 73.07023437 12.2109375 73.078125 C10.89222656 73.06265625 9.57351563 73.0471875 8.21484375 73.03125 C6.23677734 73.05445312 6.23677734 73.05445312 4.21875 73.078125 C2.94902344 73.07296875 1.67929687 73.0678125 0.37109375 73.0625 C-1.36430664 73.05573242 -1.36430664 73.05573242 -3.13476562 73.04882812 C-7.02538483 72.40963774 -8.51918736 71.31694737 -11.28515625 68.53125 C-11.91334534 65.64746094 -11.91334534 65.64746094 -11.91625977 62.265625 C-11.92879288 60.99750977 -11.94132599 59.72939453 -11.95423889 58.42285156 C-11.94197055 57.04230726 -11.92855052 55.66177279 -11.9140625 54.28125 C-11.91489143 52.8616518 -11.91735172 51.44205369 -11.92137146 50.02246094 C-11.92422789 47.04983569 -11.90954525 44.07796457 -11.88208008 41.10546875 C-11.84799592 37.29862404 -11.85401603 33.49312752 -11.87274265 29.68621826 C-11.88332075 26.75558268 -11.87436781 23.82525983 -11.85935783 20.89465332 C-11.85418139 19.49126108 -11.85465134 18.08783611 -11.86090279 16.68444824 C-11.8663636 14.72188078 -11.84311041 12.75929705 -11.81860352 10.796875 C-11.81240494 9.68086914 -11.80620636 8.56486328 -11.79981995 7.41503906 C-10.58603981 0.61392622 -6.16733855 0.02139447 0 0 Z " fill="#000000" transform="translate(321.28515625,32.46875)"/>
<path d="M0 0 C0.83113312 -0.00807175 1.66226624 -0.01614349 2.51858521 -0.02445984 C4.27880772 -0.03829946 6.03905705 -0.04902217 7.79931641 -0.05688477 C10.4904258 -0.07410748 13.18030969 -0.11799412 15.87109375 -0.16210938 C17.58072013 -0.17223552 19.29035695 -0.18075187 21 -0.1875 C22.20642654 -0.21376213 22.20642654 -0.21376213 23.43722534 -0.24055481 C27.04286182 -0.22656529 29.1764697 -0.10072011 32.11376953 2.08129883 C34.0976112 4.89827748 34.56254775 6.79530855 34.6328125 10.23828125 C32.50237772 14.80349864 32.50237772 14.80349864 29.6328125 16.23828125 C27.75901645 16.30861894 25.88280148 16.32258345 24.0078125 16.30078125 C23.00492187 16.29175781 22.00203125 16.28273438 20.96875 16.2734375 C20.19789063 16.26183594 19.42703125 16.25023438 18.6328125 16.23828125 C18.63947433 16.88085876 18.64613617 17.52343628 18.65299988 18.18548584 C18.71933026 24.86872356 18.76460365 31.55186788 18.79760742 38.23535156 C18.81270105 40.73018186 18.83317798 43.2249856 18.85913086 45.71972656 C18.8954879 49.30410311 18.91253328 52.88812907 18.92578125 56.47265625 C18.94126511 57.58944763 18.95674896 58.70623901 18.97270203 59.85687256 C18.97292862 60.89764954 18.97315521 61.93842651 18.97338867 63.01074219 C18.98005051 63.92563416 18.98671234 64.84052612 18.99357605 65.78314209 C18.5618909 68.72093088 17.63391905 70.07795815 15.6328125 72.23828125 C13.765625 73.0234375 13.765625 73.0234375 11.7578125 73.30078125 C11.10039062 73.41550781 10.44296875 73.53023438 9.765625 73.6484375 C7.10796667 73.13734936 5.5632281 72.01134979 3.70422363 70.0684967 C1.3174225 65.99129405 2.03828971 60.95142938 2.14453125 56.375 C2.15160599 55.2278804 2.15868073 54.0807608 2.16596985 52.89888 C2.19392437 49.24051287 2.25666964 45.58368462 2.3203125 41.92578125 C2.34539378 39.4433815 2.36820724 36.96095773 2.38867188 34.47851562 C2.44375472 28.39791379 2.52739352 22.31820747 2.6328125 16.23828125 C1.51132812 16.29048828 1.51132812 16.29048828 0.3671875 16.34375 C-0.61765625 16.37082031 -1.6025 16.39789063 -2.6171875 16.42578125 C-3.59171875 16.46058594 -4.56625 16.49539062 -5.5703125 16.53125 C-8.80146092 16.19279172 -10.08634501 15.51912374 -12.3671875 13.23828125 C-13.47092128 9.26483964 -13.78262333 7.14828353 -12.0546875 3.36328125 C-8.79757045 -0.73827356 -4.86010687 0.04441398 0 0 Z " fill="#000000" transform="translate(265.3671875,31.76171875)"/>
<path d="M0 0 C2.66870117 1.27050781 2.66870117 1.27050781 5 4 C5.71861524 7.99218349 5.57994376 11.93992097 5.48828125 15.984375 C5.48120651 17.15510559 5.47413177 18.32583618 5.46684265 19.53204346 C5.43884981 23.27201173 5.37609721 27.01048407 5.3125 30.75 C5.28742368 33.28513463 5.26460936 35.82029273 5.24414062 38.35546875 C5.18900684 44.57082307 5.10532977 50.78530467 5 57 C6.66289062 56.93039063 6.66289062 56.93039063 8.359375 56.859375 C9.82288968 56.82184898 11.28643356 56.78544971 12.75 56.75 C13.47960937 56.71648437 14.20921875 56.68296875 14.9609375 56.6484375 C18.51095942 56.58389165 20.56816373 56.68649367 23.48046875 58.80078125 C25.73140304 62.05856019 25.61048933 64.13356756 25 68 C23.25 70.6953125 23.25 70.6953125 20 73 C15.79965507 73.67292446 11.6802533 73.56065334 7.4375 73.4375 C6.30119141 73.43169922 5.16488281 73.42589844 3.99414062 73.41992188 C-5.71564811 73.27670965 -5.71564811 73.27670965 -9 71 C-11.13565454 67.67325462 -11.25768033 64.93052639 -11.2746582 61.02563477 C-11.28419022 59.82080948 -11.29372223 58.61598419 -11.30354309 57.37464905 C-11.30263168 56.07667892 -11.30172028 54.7787088 -11.30078125 53.44140625 C-11.30467039 52.09146493 -11.30900551 50.74152483 -11.31376648 49.3915863 C-11.32122016 46.56464671 -11.32094367 43.73783202 -11.31567383 40.91088867 C-11.30988034 37.29494186 -11.32681073 33.67950747 -11.3500185 30.06364536 C-11.3647774 27.27631154 -11.36562464 24.48910052 -11.36250877 21.70173454 C-11.36326928 19.72256591 -11.3771248 17.74341629 -11.39118958 15.76429749 C-11.38496078 14.55632004 -11.37873199 13.34834259 -11.37231445 12.10375977 C-11.37294388 11.0432692 -11.3735733 9.98277863 -11.3742218 8.89015198 C-10.94426116 5.56952342 -9.97102756 3.68387292 -8 1 C-5.14675563 -0.42662219 -3.16545451 -0.31033868 0 0 Z " fill="#000000" transform="translate(371,32)"/>
</svg>
